<?xml version="1.0" ?>
<!DOCTYPE svg  PUBLIC '-//W3C//DTD SVG 1.1//EN'  'http://www.w3.org/Graphics/SVG/1.1/DTD/svg11.dtd'>
<!-- Uploaded to: SVG Repo, www.svgrepo.com, Generator: SVG Repo Mixer Tools -->
<svg fill="#000000" width="800px" height="800px" viewBox="0 0 32 32" style="fill-rule:evenodd;clip-rule:evenodd;stroke-linejoin:round;stroke-miterlimit:2;" version="1.1" xml:space="preserve" xmlns="http://www.w3.org/2000/svg" xmlns:serif="http://www.serif.com/" xmlns:xlink="http://www.w3.org/1999/xlink">
<g transform="matrix(1,0,0,1,-288,-336)">
<g transform="matrix(1.02211,0,0,1,-6.99591,1)">
<path d="M310.933,342C312.734,342 314.302,343.257 314.733,345.044C315.385,347.753 316.341,351.726 317.044,354.648C317.555,356.77 316.305,358.919 314.237,359.473C313.369,359.705 312.459,359.949 311.635,360.17C310.039,360.598 308.403,359.633 307.967,358.006C307.967,358.005 307.967,358.004 307.967,358.003C307.65,356.82 306.598,356 305.398,356C304.675,356 303.861,356 303.138,356C301.938,356 300.886,356.82 300.569,358.003C300.569,358.004 300.569,358.005 300.569,358.006C300.133,359.633 298.497,360.598 296.901,360.17C296.04,359.939 295.085,359.684 294.183,359.442C292.161,358.9 290.913,356.83 291.348,354.74C291.949,351.853 292.772,347.901 293.341,345.168C293.725,343.321 295.321,342 297.168,342C300.942,342 307.204,342 310.933,342Z" style="fill:rgb(144,224,239);"/>
</g>
<path d="M310.812,342C307.001,342 300.601,342 296.743,342C294.383,342 292.344,343.651 291.853,345.96C291.271,348.693 290.43,352.645 289.816,355.532C289.261,358.144 290.856,360.732 293.439,361.409L296.216,362.137C298.378,362.704 300.593,361.425 301.183,359.27L301.184,359.267C301.389,358.519 302.069,358 302.845,358C302.845,358 305.155,358 305.155,358C305.931,358 306.611,358.519 306.816,359.267L306.817,359.27C307.407,361.425 309.622,362.704 311.784,362.137L314.443,361.44C317.085,360.748 318.682,358.062 318.03,355.409C317.311,352.487 316.334,348.514 315.667,345.806C315.118,343.571 313.113,342 310.812,342L310.812,342ZM310.812,344C312.193,344 313.395,344.943 313.725,346.283C313.725,346.283 316.088,355.887 316.088,355.887C316.479,357.479 315.521,359.09 313.935,359.506C313.935,359.506 311.277,360.203 311.277,360.203C310.175,360.491 309.046,359.84 308.746,358.742C308.746,358.742 308.745,358.739 308.745,358.739C308.302,357.121 306.832,356 305.155,356L302.845,356C301.168,356 299.698,357.121 299.255,358.739C299.255,358.739 299.254,358.742 299.254,358.742C298.954,359.84 297.825,360.491 296.723,360.203C296.723,360.203 293.946,359.475 293.946,359.475C292.396,359.068 291.439,357.516 291.772,355.948C292.387,353.062 293.228,349.109 293.809,346.376C294.104,344.99 295.327,344 296.743,344L310.812,344ZM297,349L296,349C295.735,349 295.48,349.105 295.293,349.293C295.105,349.48 295,349.735 295,350C295,350.265 295.105,350.52 295.293,350.707C295.48,350.895 295.735,351 296,351L297,351L297,352C297,352.265 297.105,352.52 297.293,352.707C297.48,352.895 297.735,353 298,353C298.265,353 298.52,352.895 298.707,352.707C298.895,352.52 299,352.265 299,352L299,351L300,351C300.265,351 300.52,350.895 300.707,350.707C300.895,350.52 301,350.265 301,350C301,349.735 300.895,349.48 300.707,349.293C300.52,349.105 300.265,349 300,349L299,349L299,348C299,347.735 298.895,347.48 298.707,347.293C298.52,347.105 298.265,347 298,347C297.735,347 297.48,347.105 297.293,347.293C297.105,347.48 297,347.735 297,348L297,349ZM310,351C310.552,351 311,351.448 311,352C311,352.552 310.552,353 310,353C309.448,353 309,352.552 309,352C309,351.448 309.448,351 310,351ZM308,349C308.552,349 309,349.448 309,350C309,350.552 308.552,351 308,351C307.448,351 307,350.552 307,350C307,349.448 307.448,349 308,349ZM312,349C312.552,349 313,349.448 313,350C313,350.552 312.552,351 312,351C311.448,351 311,350.552 311,350C311,349.448 311.448,349 312,349ZM310,347C310.552,347 311,347.448 311,348C311,348.552 310.552,349 310,349C309.448,349 309,348.552 309,348C309,347.448 309.448,347 310,347Z" style="fill:rgb(25,144,167);"/>
</g>
</svg>