<?xml version="1.0" encoding="iso-8859-1"?>
<!-- Uploaded to: SVG Repo, www.svgrepo.com, Generator: SVG Repo Mixer Tools -->
<svg version="1.1" id="Layer_1" xmlns="http://www.w3.org/2000/svg" xmlns:xlink="http://www.w3.org/1999/xlink" 
	 viewBox="0 0 512 512" xml:space="preserve">
<g>
	<rect x="32.426" y="311.255" style="fill:#FF5023;" width="52.194" height="105.614"/>
	<path style="fill:#FF5023;" d="M420.188,416.87h52.588c3.754,0,6.798-3.044,6.798-6.798v-98.815h-59.386L420.188,416.87
		L420.188,416.87z"/>
</g>
<path style="fill:#52A2E7;" d="M131.037,447.528H96.01c-13.332,0-24.14-10.808-24.14-24.14V298.177
	c0-13.332,10.808-24.14,24.14-24.14h35.026v173.491H131.037z"/>
<path style="fill:#D7D5D9;" d="M149.44,423.134h-18.404V298.429h18.404c7.264,0,13.153,5.889,13.153,13.153v98.398
	C162.593,417.246,156.704,423.134,149.44,423.134z"/>
<path style="fill:#52A2E7;" d="M380.012,274.037h35.026c13.332,0,24.14,10.808,24.14,24.14v125.211
	c0,13.332-10.808,24.14-24.14,24.14h-35.026V274.037z"/>
<g>
	<path style="opacity:0.28;fill:#3C66B1;enable-background:new    ;" d="M417.575,274.17c0.087,0.834,0.134,1.68,0.134,2.537
		v125.211c0,13.332-10.808,24.14-24.14,24.14h-13.556v21.47h35.026c13.332,0,24.14-10.808,24.14-24.14V298.177
		C439.177,285.701,429.714,275.439,417.575,274.17z"/>
	<path style="opacity:0.28;fill:#3C66B1;enable-background:new    ;" d="M93.473,274.17c-0.087,0.834-0.134,1.68-0.134,2.537
		v125.211c0,13.332,10.808,24.14,24.14,24.14h13.556v21.47H96.01c-13.332,0-24.14-10.808-24.14-24.14V298.177
		C71.871,285.701,81.334,275.439,93.473,274.17z"/>
</g>
<g>
	<path style="fill:#D7D5D9;" d="M361.608,298.429h18.404v124.705h-18.404c-7.264,0-13.153-5.889-13.153-13.153v-98.398
		C348.455,304.319,354.344,298.429,361.608,298.429z"/>
	<path style="fill:#D7D5D9;" d="M279.304,504.396H231.31c-11.709,0-21.289-9.58-21.289-21.289l0,0
		c0-11.709,9.58-21.289,21.289-21.289h47.993c11.709,0,21.289,9.58,21.289,21.289l0,0
		C300.593,494.816,291.013,504.396,279.304,504.396z"/>
</g>
<g>
	<path style="opacity:0.36;fill:#77757E;enable-background:new    ;" d="M287.698,463.56c1.116,2.58,1.742,5.417,1.742,8.395l0,0
		c0,11.709-9.58,21.289-21.289,21.289h-47.993c-2.978,0-5.814-0.626-8.395-1.742c3.274,7.564,10.816,12.894,19.547,12.894h47.993
		c11.709,0,21.289-9.58,21.289-21.289l0,0C300.593,474.376,295.263,466.833,287.698,463.56z"/>
	<rect x="131.042" y="298.43" style="opacity:0.36;fill:#77757E;enable-background:new    ;" width="15.779" height="124.705"/>
	<rect x="364.23" y="298.43" style="opacity:0.36;fill:#77757E;enable-background:new    ;" width="15.779" height="124.705"/>
</g>
<g>
	<rect x="439.174" y="311.255" style="opacity:0.34;fill:#891C00;enable-background:new    ;" width="18.776" height="105.614"/>
	<rect x="53.096" y="311.255" style="opacity:0.34;fill:#891C00;enable-background:new    ;" width="18.776" height="105.614"/>
</g>
<path d="M413.906,65.669C371.559,23.322,315.48,0,256,0c-32.044,0-63.034,6.719-92.108,19.971
	c-3.821,1.742-5.507,6.251-3.765,10.073c1.742,3.822,6.251,5.507,10.073,3.765C197.28,21.466,226.148,15.208,256,15.208
	c114.893,0,208.366,93.472,208.366,208.367v80.079h-17.584v-5.477c0-17.504-14.24-31.744-31.744-31.744h-35.026
	c-4.199,0-7.604,3.404-7.604,7.604v16.79h-10.8c-11.445,0-20.758,9.312-20.758,20.758v98.398c0,11.445,9.312,20.758,20.758,20.758
	h10.8v16.789c0,4.2,3.405,7.604,7.604,7.604h35.026c17.139,0,31.14-13.656,31.716-30.656h25.216c4.199,0,7.604-3.404,7.604-7.604
	v-99.686v-5.929v-87.683C479.574,164.094,456.253,108.015,413.906,65.669z M361.608,415.531c-3.06,0-5.55-2.489-5.55-5.55v-98.398
	c0-3.061,2.49-5.55,5.55-5.55h10.8V415.53h-10.8V415.531z M431.573,423.388c0,9.118-7.417,16.536-16.536,16.536h-27.422v-16.789
	V298.43v-16.79h27.422c9.118,0,16.536,7.417,16.536,16.536V423.388z M464.366,409.266h-16.632v-90.405h16.632V409.266z"/>
<path d="M279.304,454.214H231.31c-13.301,0-24.524,9.037-27.871,21.291H80.247c-17.983,0-32.613-14.63-32.613-32.613v-18.418h16.66
	c0.576,17,14.577,30.656,31.716,30.656h35.026c4.199,0,7.604-3.404,7.604-7.604v-16.788h10.8c11.445,0,20.758-9.312,20.758-20.758
	v-98.398c0-11.445-9.312-20.758-20.758-20.758h-10.8v-16.79c0-4.2-3.405-7.604-7.604-7.604H96.01
	c-17.503,0-31.744,14.24-31.744,31.744v5.477H47.634v-80.079c0-60.149,26.255-117.46,72.031-157.238
	c3.169-2.755,3.506-7.557,0.752-10.727c-2.754-3.17-7.557-3.508-10.728-0.752C60.588,97.523,32.426,159.019,32.426,223.575v87.683
	v5.929v72.31v27.374v26.022c0,26.368,21.452,47.821,47.821,47.821H203.44c3.348,12.252,14.57,21.287,27.87,21.287h47.993
	c15.932,0,28.893-12.961,28.893-28.893C308.197,467.175,295.235,454.214,279.304,454.214z M149.44,306.034
	c3.06,0,5.55,2.489,5.55,5.55v98.398c0,3.061-2.49,5.55-5.55,5.55h-10.8V306.035h10.8V306.034z M79.475,298.177
	c0-9.118,7.417-16.536,16.536-16.536h27.422v16.79v124.705v16.789H96.01c-9.118,0-16.536-7.417-16.536-16.536v-6.517V311.258
	v-13.081H79.475z M64.267,409.266H47.634v-19.77v-70.635h16.632V409.266z M279.304,496.792H231.31
	c-7.546,0-13.685-6.14-13.685-13.685c0-7.545,6.139-13.685,13.685-13.685h47.993c7.546,0,13.685,6.14,13.685,13.685
	C292.989,490.652,286.85,496.792,279.304,496.792z"/>
</svg>