<?xml version="1.0" ?>
<!-- Uploaded to: SVG Repo, www.svgrepo.com, Generator: SVG Repo Mixer Tools -->
<svg width="800px" height="800px" viewBox="0 0 50 50" id="Message_And_Communication_Icons" version="1.1" xml:space="preserve" xmlns="http://www.w3.org/2000/svg" xmlns:xlink="http://www.w3.org/1999/xlink">
<g>
<g>
<g>
<polygon points="33.9,10.2 33.9,39.9 25,39.9 25,43 33.9,43 34.5,43 36.7,43 36.7,10.2    " style="fill:#4DE0F9;"/>
</g>
</g>
<g>
<g>
<g>
<path d="M36,42.3H13.8V8.4H36V42.3z M15,41.1h19.8V9.6H15V41.1z" style="fill:#0D5FC3;"/>
</g>
</g>
<g>
<g>
<g>
<rect height="1.2" style="fill:#0D5FC3;" width="5.9" x="24.8" y="13.7"/>
</g>
</g>
<g>
<g>
<rect height="1.2" style="fill:#0D5FC3;" width="3.3" x="19.3" y="13.7"/>
</g>
</g>
<g>
<g>
<rect height="1.2" style="fill:#0D5FC3;" width="11.3" x="19.3" y="17.3"/>
</g>
</g>
</g>
<g>
<g>
<g>
<rect height="1.2" style="fill:#0D5FC3;" width="2.3" x="28.3" y="20.9"/>
</g>
</g>
<g>
<g>
<rect height="1.2" style="fill:#0D5FC3;" width="6.8" x="19.3" y="20.9"/>
</g>
</g>
<g>
<g>
<rect height="1.2" style="fill:#0D5FC3;" width="4.7" x="25.9" y="24.5"/>
</g>
</g>
<g>
<g>
<rect height="1.2" style="fill:#0D5FC3;" width="4.2" x="19.3" y="24.5"/>
</g>
</g>
<g>
<g>
<rect height="1.2" style="fill:#0D5FC3;" width="11.3" x="19.3" y="28.1"/>
</g>
</g>
</g>
<g>
<g>
<g>
<rect height="1.2" style="fill:#0D5FC3;" width="4.7" x="25.9" y="31.7"/>
</g>
</g>
<g>
<g>
<rect height="1.2" style="fill:#0D5FC3;" width="4.2" x="19.3" y="31.7"/>
</g>
</g>
<g>
<g>
<rect height="1.2" style="fill:#0D5FC3;" width="11.3" x="19.3" y="35.3"/>
</g>
</g>
</g>
</g>
</g>
</svg>