<?xml version="1.0" encoding="iso-8859-1"?>
<!-- Uploaded to: SVG Repo, www.svgrepo.com, Generator: SVG Repo Mixer Tools -->
<svg version="1.1" id="Layer_1" xmlns="http://www.w3.org/2000/svg" xmlns:xlink="http://www.w3.org/1999/xlink" 
	 viewBox="0 0 504.123 504.123" xml:space="preserve">
<circle style="fill:#324A5E;" cx="252.062" cy="252.062" r="252.062"/>
<rect x="176.443" y="163.84" style="fill:#F1543F;" width="118.154" height="23.237"/>
<path style="fill:#E6E9EE;" d="M287.114,102.4l-7.877-7.877l-7.877,7.877c-7.877,7.483-20.086,7.483-27.963,0l-7.877-7.877
	l-7.877,7.877c-7.877,7.483-20.086,7.483-27.963,0l-7.877-7.877l-7.877,7.877c-7.877,7.483-20.086,7.483-27.963,0l-7.877-7.877
	c11.422,28.357,21.268,50.806,29.145,69.317h118.154c8.271-18.117,17.723-40.566,28.751-69.317l-7.877,7.877
	C307.594,109.883,294.991,109.883,287.114,102.4z"/>
<path style="fill:#F9B54C;" d="M352.492,312.714c0-0.394,0-0.788-0.394-1.575c-2.757-22.843-9.846-44.111-19.298-63.803
	c-10.24-21.268-23.631-41.354-38.597-60.652H176.049c-14.966,18.905-28.357,38.991-38.597,60.652
	c-8.271,17.329-14.572,35.446-18.511,55.138c-0.394,3.151-1.182,5.908-1.182,8.665c-5.12,45.292,18.511,81.92,62.622,92.948
	c7.877,1.969,15.754,3.151,23.631,3.938c15.754,1.575,31.508,1.575,47.655,0.788c9.058-0.394,17.329-0.788,25.206-1.575
	C326.105,402.117,358.4,361.157,352.492,312.714z"/>
<circle style="fill:#84DBFF;" cx="328.074" cy="335.557" r="74.043"/>
<circle style="fill:#54C0EB;" cx="328.074" cy="335.557" r="59.865"/>
<path style="fill:#E6E9EE;" d="M325.317,385.575v-8.665c-11.028-1.182-20.874-5.514-29.932-12.997l8.665-10.634
	c6.695,5.908,13.785,9.452,20.874,10.634v-23.631c-9.058-2.363-15.754-5.12-20.086-8.665c-4.332-3.545-6.302-8.665-6.302-15.754
	c0-7.089,2.363-12.603,7.483-16.935c4.726-4.332,11.028-6.695,18.905-7.089v-5.908h7.877v5.514
	c8.665,0.788,17.329,3.545,25.206,9.058l-7.877,11.028c-5.12-3.938-11.028-6.302-17.329-7.089v22.843h0.394
	c9.452,2.363,16.148,5.12,20.48,8.665c4.332,3.545,6.695,9.058,6.695,16.148s-2.363,12.997-7.483,17.329
	c-5.12,4.332-11.422,6.695-19.692,7.089v8.665h-7.877V385.575z M317.046,307.594c-1.969,1.969-3.151,3.938-3.151,6.695
	c0,2.757,0.788,4.726,2.363,6.302c1.575,1.575,4.726,3.151,9.058,4.726v-20.874C321.772,304.443,319.015,305.625,317.046,307.594z
	 M342.252,360.369c2.363-1.969,3.545-4.332,3.545-7.089c0-2.757-0.788-5.12-2.757-6.695c-1.575-1.575-5.12-3.151-9.846-4.726v21.662
	C337.132,363.52,340.283,362.338,342.252,360.369z"/>
</svg>