<?xml version="1.0" encoding="iso-8859-1"?>
<!-- Uploaded to: SVG Repo, www.svgrepo.com, Generator: SVG Repo Mixer Tools -->
<svg height="800px" width="800px" version="1.1" id="Layer_1" xmlns="http://www.w3.org/2000/svg" xmlns:xlink="http://www.w3.org/1999/xlink" 
	 viewBox="0 0 511.883 511.883" xml:space="preserve">
<path style="fill:#656D78;" d="M479.89,191.941H31.993v106.647H479.89c17.668,0,31.993-23.869,31.993-53.316
	C511.883,215.811,497.558,191.941,479.89,191.941z"/>
<path style="fill:#434A54;" d="M63.986,245.273c0,29.447-14.325,53.316-31.993,53.316S0,274.72,0,245.273
	c0-29.462,14.325-53.332,31.993-53.332S63.986,215.811,63.986,245.273z"/>
<polygon style="fill:#FFCE54;" points="362.588,447.897 106.648,447.897 106.648,138.626 426.575,138.626 426.575,383.913 "/>
<path style="fill:#656D78;" d="M479.89,63.986H31.993v106.632H479.89c17.668,0,31.993-23.869,31.993-53.315
	C511.883,87.84,497.558,63.986,479.89,63.986z"/>
<path style="fill:#434A54;" d="M63.986,117.302c0,29.446-14.325,53.315-31.993,53.315S0,146.748,0,117.302
	C0,87.84,14.325,63.986,31.993,63.986S63.986,87.84,63.986,117.302z"/>
<g>
	<path style="fill:#E6E9ED;" d="M42.663,117.302c0,5.889-4.78,10.653-10.669,10.653c-5.89,0-10.654-4.765-10.654-10.653
		c0-5.89,4.764-10.67,10.654-10.67C37.882,106.632,42.663,111.413,42.663,117.302z"/>
	<path style="fill:#E6E9ED;" d="M42.663,245.273c0,5.889-4.78,10.654-10.669,10.654c-5.89,0-10.654-4.765-10.654-10.654
		s4.764-10.669,10.654-10.669C37.882,234.603,42.663,239.383,42.663,245.273z"/>
</g>
<polygon style="fill:#F6BB42;" points="362.588,383.913 362.588,447.897 426.575,383.913 "/>
</svg>