<?xml version="1.0" encoding="iso-8859-1"?>
<!-- Uploaded to: SVG Repo, www.svgrepo.com, Generator: SVG Repo Mixer Tools -->
<svg height="800px" width="800px" version="1.1" id="Layer_1" xmlns="http://www.w3.org/2000/svg" xmlns:xlink="http://www.w3.org/1999/xlink" 
	 viewBox="0 0 512 512" xml:space="preserve">
<path style="fill:#25B6D2;" d="M485.216,421.564L485.216,421.564l-70.4-70.336l-15.448-15.432c-17.552-17.528-46-17.512-63.528,0.04
	c-17.528,17.552-17.512,46,0.04,63.528l0,0l26.664,26.64l0.104,0.128l27.016,26.992l58.832,58.776L512,448.316L485.216,421.564z"/>
<ellipse style="fill:#415E72;" cx="216.96" cy="216.98" rx="216.96" ry="216.88"/>
<ellipse style="fill:#FFFFFF;" cx="216.96" cy="216.98" rx="180.632" ry="180.512"/>
<path style="fill:#E81241;" d="M216.992,378.092c-88.976-0.056-161.056-72.232-161-161.2c0.056-88.976,72.232-161.064,161.208-161
	c88.936,0.056,161,72.168,161,161.104C378.064,305.956,305.952,378.02,216.992,378.092z M216.992,59.892
	c-86.768,0.064-157.056,70.448-157,157.208c0.056,86.768,70.44,157.064,157.208,157c86.728-0.056,157.008-70.384,157-157.112
	C374.072,130.236,303.744,59.956,216.992,59.892L216.992,59.892z"/>
</svg>