<?xml version="1.0" encoding="iso-8859-1"?>
<!-- Uploaded to: SVG Repo, www.svgrepo.com, Generator: SVG Repo Mixer Tools -->
<svg fill="#000000" version="1.1" id="Layer_1" xmlns="http://www.w3.org/2000/svg" xmlns:xlink="http://www.w3.org/1999/xlink" 
	 viewBox="0 0 491.52 491.52" xml:space="preserve">
<g>
	<g>
		<rect x="235.52" width="20.48" height="40.96"/>
	</g>
</g>
<g>
	<g>
		<rect x="133.115" y="27.42" transform="matrix(0.866 -0.5 0.5 0.866 -4.7438 78.0965)" width="20.48" height="40.959"/>
	</g>
</g>
<g>
	<g>
		<rect x="58.161" y="102.382" transform="matrix(0.5 -0.866 0.866 0.5 -72.2013 120.6659)" width="20.48" height="40.959"/>
	</g>
</g>
<g>
	<g>
		<rect x="20.48" y="215.04" width="40.96" height="20.48"/>
	</g>
</g>
<g>
	<g>
		<rect x="47.907" y="317.44" transform="matrix(0.866 -0.5 0.5 0.866 -154.6806 78.0969)" width="40.959" height="20.48"/>
	</g>
</g>
<g>
	<g>
		<rect x="412.86" y="307.214" transform="matrix(0.5 -0.866 0.866 0.5 -72.2439 530.2539)" width="20.48" height="40.959"/>
	</g>
</g>
<g>
	<g>
		<rect x="430.08" y="215.04" width="40.96" height="20.48"/>
	</g>
</g>
<g>
	<g>
		<rect x="402.648" y="112.649" transform="matrix(0.8661 -0.4999 0.4999 0.8661 -4.769 227.9748)" width="40.961" height="20.48"/>
	</g>
</g>
<g>
	<g>
		
			<rect x="327.668" y="37.663" transform="matrix(0.4999 -0.8661 0.8661 0.4999 132.6229 325.4833)" width="40.961" height="20.48"/>
	</g>
</g>
<g>
	<g>
		<path d="M399.36,215.04c0-43.64-18.66-85.37-51.2-114.49c-32.975-29.515-75.555-43.055-119.96-38.13
			c-70.02,7.785-126.775,64.215-134.955,134.18c-4.2,35.9,3.73,70.765,22.94,100.83c17.526,27.425,30.223,58.429,38.143,91.69
			H122.88v20.48h35.652c1.166,6.753,2.158,13.571,2.928,20.48h-28.34v20.48h30.081c0.354,6.593,0.639,13.21,0.639,19.91v21.05
			h163.84v-25.39c0-5.191,0.297-10.38,0.566-15.57H358.4v-20.48h-28.377c0.82-6.833,1.883-13.659,3.167-20.48h35.449v-20.48h-30.887
			c8.321-32.399,21.684-64.588,40.397-96.27C392.025,269.365,399.36,242.46,399.36,215.04z M307.2,466.13v4.91H184.32v-0.57
			c0-6.698-0.307-13.309-0.644-19.91h124.087C307.512,455.749,307.2,460.938,307.2,466.13z M309.43,430.08H182.023
			c-0.727-6.899-1.644-13.721-2.742-20.48h133.102C311.181,416.419,310.197,423.246,309.43,430.08z M316.628,389.12H175.371
			c-8.329-37.289-22.327-72.047-41.926-102.72c-16.64-26.035-23.505-56.265-19.86-87.42c7.085-60.595,56.24-109.465,116.875-116.21
			c38.52-4.255,75.455,7.455,104.045,33.04c28.2,25.24,44.375,61.41,44.375,99.23c0,23.755-6.35,47.06-18.36,67.39
			C339.834,317.453,325.291,353.138,316.628,389.12z"/>
	</g>
</g>
</svg>