<!DOCTYPE svg PUBLIC "-//W3C//DTD SVG 1.1//EN" "http://www.w3.org/Graphics/SVG/1.1/DTD/svg11.dtd">
<!-- Uploaded to: SVG Repo, www.svgrepo.com, Transformed by: SVG Repo Mixer Tools -->
<svg height="800px" width="800px" version="1.1" id="Layer_1" xmlns="http://www.w3.org/2000/svg" xmlns:xlink="http://www.w3.org/1999/xlink" viewBox="0 0 512 512" xml:space="preserve" fill="#000000">
<g id="SVGRepo_bgCarrier" stroke-width="0"/>
<g id="SVGRepo_tracerCarrier" stroke-linecap="round" stroke-linejoin="round"/>
<g id="SVGRepo_iconCarrier"> <g> <g> <g> <path style="fill:#ffffff;" d="M453.523,38.777H58.477C26.233,38.777,0,65.01,0,97.254c0,8.669,0,230.264,0,241.81 c0,32.244,26.233,58.477,58.477,58.477h122.667l-6.301,36.698h-39.696c-10.765,0-19.492,8.727-19.492,19.492 s8.727,19.492,19.492,19.492c11.424,0,229.887,0,241.706,0c10.765,0,19.492-8.727,19.492-19.492s-8.727-19.492-19.492-19.492 h-39.696l-6.301-36.698h122.667c32.246,0,58.477-26.233,58.477-58.477c0-11.759,0-233.55,0-241.81 C512,65.01,485.768,38.777,453.523,38.777z M214.398,434.238l6.301-36.698h70.603l6.301,36.698H214.398z M473.015,339.064 c0,10.748-8.743,19.492-19.492,19.492c-9.504,0-385.85,0-395.046,0c-10.748,0-19.492-8.744-19.492-19.492v-8.694h434.03V339.064z M473.015,291.385H38.985V97.254c0-10.748,8.744-19.492,19.492-19.492h395.046c10.749,0,19.492,8.744,19.492,19.492V291.385z"/> <path style="fill:#ffffff;" d="M321.94,152.991l-23.859,13.775v-12.708c0-10.765-8.727-19.492-19.492-19.492h-88.313 c-10.765,0-19.492,8.727-19.492,19.492v61.031c0,10.765,8.727,19.492,19.492,19.492h88.313c10.765,0,19.492-8.727,19.492-19.492 v-12.709l23.859,13.775c8.548,4.935,19.277-1.241,19.277-11.13v-40.905C341.217,154.25,330.504,148.046,321.94,152.991z"/> </g> </g> </g> </g>
</svg>